<svg xmlns="http://www.w3.org/2000/svg" viewBox="0 0 146 132" width="146" height="132" role="img" aria-label="Trợ lý đang nghĩ">
  <defs>
    <linearGradient id="body" x1="0" y1="0" x2="0" y2="1"><stop offset="0" stop-color="#818cf8"/><stop offset="1" stop-color="#4f46e5"/></linearGradient>
    <linearGradient id="head" x1="0" y1="0" x2="0" y2="1"><stop offset="0" stop-color="#ffffff"/><stop offset="1" stop-color="#e0e7ff"/></linearGradient>
  </defs>
  <ellipse cx="60" cy="124" rx="30" ry="5" fill="#1e293b" opacity=".12"/>
  <path d="M32 78 L18 84" stroke="#a5b4fc" stroke-width="9" stroke-linecap="round" fill="none"/>
  <circle cx="16" cy="85" r="6.5" fill="#fcd34d"/>
  <rect x="28" y="64" width="64" height="47" rx="18" fill="url(#body)"/>
  <circle cx="60" cy="88" r="13" fill="#eef2ff" stroke="#c7d2fe" stroke-width="2"/>
  <path d="M60 79 L64 88 L56 88 Z" fill="#ef4444"/>
  <path d="M60 97 L64 88 L56 88 Z" fill="#cbd5e1"/>
  <circle cx="60" cy="88" r="1.8" fill="#475569"/>
  <path d="M60 13 L60 6" stroke="#a5b4fc" stroke-width="3" stroke-linecap="round"/>
  <circle cx="60" cy="4" r="4" fill="#fcd34d"/>
  <circle cx="60" cy="40" r="28" fill="url(#head)" stroke="#6366f1" stroke-width="3"/>
  <circle cx="30" cy="42" r="5" fill="#c7d2fe"/>
  <circle cx="90" cy="42" r="5" fill="#c7d2fe"/>
  <!-- mắt ngước lên: đang nghĩ -->
  <circle cx="52" cy="37" r="4.2" fill="#1e293b"/>
  <circle cx="70" cy="37" r="4.2" fill="#1e293b"/>
  <circle cx="53.4" cy="35.4" r="1.3" fill="#ffffff"/>
  <circle cx="71.4" cy="35.4" r="1.3" fill="#ffffff"/>
  <path d="M55 51 q6 -3 12 0" stroke="#1e293b" stroke-width="2.5" stroke-linecap="round" fill="none"/>
  <!-- tay chống cằm -->
  <path d="M88 78 L80 64" stroke="#a5b4fc" stroke-width="9" stroke-linecap="round" fill="none"/>
  <circle cx="78" cy="60" r="6.5" fill="#fcd34d"/>
  <!-- bong bóng suy nghĩ -->
  <circle cx="99" cy="40" r="4" fill="#ffffff" stroke="#6366f1" stroke-width="2"/>
  <circle cx="108" cy="31" r="6" fill="#ffffff" stroke="#6366f1" stroke-width="2"/>
  <circle cx="122" cy="20" r="10" fill="#ffffff" stroke="#6366f1" stroke-width="2.5"/>
  <path d="M118 17 a4.2 4.2 0 1 1 4.6 4.2 v2" stroke="#6366f1" stroke-width="2.2" stroke-linecap="round" fill="none"/>
  <circle cx="122.4" cy="26" r="1.4" fill="#6366f1"/>
</svg>
